<svg width="1150" height="1080" viewBox="0 0 1150 1080" fill="none" xmlns="http://www.w3.org/2000/svg">
	<path d="M1504.18 -270.715C1602.98 -74.7722 1395.69 229.04 1041.17 407.869C686.657 586.697 319.172 572.823 220.371 376.88C121.57 180.937 328.866 -122.875 683.38 -301.704C1037.89 -480.532 1405.38 -466.658 1504.18 -270.715Z" fill="#FFC312" />
	<path d="M1901 660.349C1901 883.941 1579.13 1065.2 1182.08 1065.2C785.032 1065.2 463.161 883.941 463.161 660.349C463.161 436.757 785.032 255.499 1182.08 255.499C1579.13 255.499 1901 436.757 1901 660.349Z" fill="#FFC312" />
	<path d="M1308.44 -547.463C1407.24 -351.52 1199.95 -47.7078 845.432 131.121C490.918 309.949 123.433 296.076 24.6318 100.132C-74.1694 -95.8106 133.127 -399.623 487.641 -578.452C842.155 -757.28 1209.64 -743.406 1308.44 -547.463Z" fill="#FFC312" />
	<path d="M1182.08 1225.33C1182.08 1497.97 941.353 1719 644.401 1719C347.449 1719 106.722 1497.97 106.722 1225.33C106.722 952.676 347.449 731.651 644.401 731.651C941.353 731.651 1182.08 952.676 1182.08 1225.33Z" fill="#FFC312" />
</svg>

